<svg width="710" height="134" viewBox="0 0 710 134" fill="none" xmlns="http://www.w3.org/2000/svg">
<path d="M112 112.636H155.067C176.297 112.636 188.481 101.253 188.481 85.6834C188.481 71.7603 178.405 63.0113 166.783 62.4939V61.5531C177.328 59.3424 184.732 51.6753 184.732 40.6685C184.732 26.1339 173.578 16.303 152.021 16.303H112V112.636ZM135.197 93.8679V70.9136H149.959C158.817 70.9136 164.253 75.6174 164.253 83.0023C164.253 89.8227 159.566 93.8679 149.538 93.8679H135.197ZM135.197 55.9086V34.7888H148.413C156.145 34.7888 161.066 38.787 161.066 45.1841C161.066 51.9575 155.63 55.9086 148.038 55.9086H135.197Z" fill="#040C34"/>
<path d="M246.076 81.45C246.076 89.8697 240.734 94.5735 233.938 94.5735C226.909 94.5735 222.598 89.7757 222.551 81.9204V40.3862H199.634V86.436C199.681 102.758 209.57 113.577 224.378 113.577C235.157 113.577 243.171 108.026 246.357 99.1832H247.107V112.636H268.945V40.3862H246.076V81.45Z" fill="#040C34"/>
<path d="M283.532 112.636H306.448V40.3862H283.532V112.636ZM295.013 31.9665C301.527 31.9665 306.776 27.0276 306.776 20.9597C306.776 14.8919 301.527 10 295.013 10C288.546 10 283.25 14.8919 283.25 20.9597C283.25 27.0276 288.546 31.9665 295.013 31.9665Z" fill="#040C34"/>
<path d="M343.95 16.303H321.034V112.636H343.95V16.303Z" fill="#040C34"/>
<path d="M384.827 113.671C395.699 113.671 402.166 107.603 405.072 100.924H405.775V112.636H428.457V16.303H405.54V52.7571H405.072C402.354 46.1248 396.074 39.4455 384.733 39.4455C369.69 39.4455 356.053 51.0638 356.053 76.5581C356.053 101.159 368.94 113.671 384.827 113.671ZM392.794 95.7494C384.311 95.7494 379.578 88.1764 379.578 76.5111C379.578 64.8928 384.264 57.4138 392.794 57.4138C401.182 57.4138 406.056 64.7047 406.056 76.5111C406.056 88.2234 401.135 95.7494 392.794 95.7494Z" fill="#040C34"/>
<path d="M463.241 113.859C473.27 113.859 480.205 109.955 484.142 102.57H484.704V112.636H506.262V63.5287C506.262 48.2415 492.718 39.4455 474.394 39.4455C455.04 39.4455 444.074 49.2293 442.246 62.3998L463.382 63.1524C464.366 58.5427 468.162 55.7205 474.207 55.7205C479.831 55.7205 483.392 58.4487 483.392 63.2935V63.5287C483.392 67.9502 478.612 68.891 466.334 69.9729C451.759 71.1958 439.575 76.6051 439.575 92.5979C439.575 106.897 449.463 113.859 463.241 113.859ZM470.317 98.8069C465.022 98.8069 461.273 96.2668 461.273 91.469C461.273 86.8123 464.928 83.99 471.442 83.0023C475.707 82.3908 480.955 81.45 483.533 80.0859V86.9534C483.533 94.009 477.628 98.8069 470.317 98.8069Z" fill="#040C34"/>
<path d="M520.274 112.636H542.956V100.924H543.658C546.564 107.603 553.031 113.671 563.903 113.671C579.837 113.671 592.678 101.159 592.678 76.5581C592.678 51.0638 579.087 39.4455 564.044 39.4455C552.656 39.4455 546.423 46.1248 543.658 52.7571H543.19V16.303H520.274V112.636ZM542.721 76.5111C542.721 64.7047 547.595 57.4138 555.984 57.4138C564.466 57.4138 569.152 64.8928 569.152 76.5111C569.152 88.1764 564.466 95.7494 555.984 95.7494C547.595 95.7494 542.721 88.2234 542.721 76.5111Z" fill="#040C34"/>
<path d="M627.602 16.303H604.686V112.636H627.602V16.303Z" fill="#040C34"/>
<path d="M675.837 114C694.722 114 707.141 104.828 709.766 90.6223L688.724 90.0108C686.943 94.8087 682.257 97.3957 676.258 97.3957C667.448 97.3957 662.012 91.5161 662.012 82.673V82.0615H710V76.3229C710 52.5219 695.566 39.4455 675.134 39.4455C653.389 39.4455 639.424 54.4034 639.424 76.7933C639.424 99.9358 653.202 114 675.837 114ZM662.012 68.7028C662.34 61.5061 668.01 56.0498 675.602 56.0498C683.147 56.0498 688.583 61.318 688.677 68.7028H662.012Z" fill="#040C34"/>
<path d="M82.9478 54.5644C81.4671 51.9023 78.6536 50.25 75.6 50.25H55.33L58.7711 9.07057C59.089 5.26336 56.784 1.72624 53.1662 0.466592C49.5526 -0.788868 45.5353 0.552436 43.4107 3.72995L1.41071 66.5422C-0.307878 69.1123 -0.46774 72.4165 0.994383 75.1399C2.45467 77.8634 5.30095 79.5624 8.39976 79.5624H28.7291L25.2242 124.983C24.9267 128.827 27.3016 132.376 30.9766 133.581C31.8399 133.865 32.7259 134 33.5995 134C36.4337 134 39.155 132.563 40.7219 130.064L82.7218 63.0643C84.3425 60.4816 84.4265 57.2285 82.9478 54.5644Z" fill="#0063ED"/>
<path d="M82.9478 54.5644C81.4671 51.9023 78.6536 50.25 75.6 50.25H55.33L58.7711 9.07057C59.089 5.26336 56.784 1.72624 53.1662 0.466592C49.5526 -0.788868 45.5353 0.552436 43.4107 3.72995L1.41071 66.5422C-0.307878 69.1123 -0.46774 72.4165 0.994383 75.1399C2.45467 77.8634 5.30095 79.5624 8.39976 79.5624H28.7291L25.2242 124.983C24.9267 128.827 27.3016 132.376 30.9766 133.581C31.8399 133.865 32.7259 134 33.5995 134C36.4337 134 39.155 132.563 40.7219 130.064L82.7218 63.0643C84.3425 60.4816 84.4265 57.2285 82.9478 54.5644Z" fill="url(#paint0_linear)"/>
<defs>
<linearGradient id="paint0_linear" x1="12.5" y1="54" x2="67.5" y2="108.5" gradientUnits="userSpaceOnUse">
<stop offset="0.00608769" stop-color="#317DF7"/>
<stop offset="0.992537" stop-color="#0031F5"/>
</linearGradient>
</defs>
</svg>
